<svg viewBox="0 0 100 115" xmlns="http://www.w3.org/2000/svg">
  <!-- Allekirjoitus "A." signature icon -->
  <path fill="#ef4224" d="m11.75,93.62c-2.04,0-4.06-.57-5.99-1.71C-.26,88.33-.48,81.07.36,77.22c.33-2.05,3.19-16.03,19.58-19.68,3.03-.67,6.3-1.36,9.58-2.01C38.79,34.77,51.96,6.78,52.13,6.42c.68-1.45,2.14-2.38,3.74-2.38q3.21,0,14.33,32.82c5.09,15.01,10.13,30.02,10.13,30.02.73,2.17-.44,4.51-2.61,5.24-2.17.73-4.51-.44-5.24-2.61-5.4-16.1-12.88-38.23-17.12-50.51-4.07,8.73-10.4,22.36-15.92,34.58,8.54-1.6,15.33-2.76,15.45-2.78,2.26-.39,4.39,1.13,4.77,3.39.38,2.25-1.13,4.39-3.38,4.77-.14.02-10.07,1.71-20.96,3.83-1.82,4.1-3.41,7.78-4.63,10.71-4.66,11.23-9.69,17.61-15.39,19.51-1.17.39-2.37.58-3.55.58m13.65-28.8c-1.25.27-2.48.53-3.68.8-11.56,2.57-13.15,12.51-13.21,12.93-.02.11-.04.26-.07.37,0,.01-.88,4.44,1.53,5.87,1.24.74,2.1.6,2.7.4,1.47-.49,5.42-2.91,10.36-14.83.68-1.64,1.47-3.5,2.36-5.54"/>
  <path fill="#ee3f23" d="m87.8,85.29c0-2.92-2.37-5.28-5.28-5.28s-5.28,2.37-5.28,5.28,2.36,5.28,5.28,5.28,5.28-2.37,5.28-5.28"/>
</svg>
