<svg viewBox="0 0 922.42 115.2" xmlns="http://www.w3.org/2000/svg">
  <style>.cls-1{fill:#ef4224}.cls-2{fill:#ee3f23;fill-rule:evenodd}.cls-3{fill:#231f20}.cls-4{fill:#bebdbd}</style>
  <path class="cls-1" d="m11.75,93.62c-2.04,0-4.06-.57-5.99-1.71C-.26,88.33-.48,81.07.36,77.22c.33-2.05,3.19-16.03,19.58-19.68,3.03-.67,6.3-1.36,9.58-2.01C38.79,34.77,51.96,6.78,52.13,6.42c.68-1.45,2.14-2.38,3.74-2.38q3.21,0,14.33,32.82c5.09,15.01,10.13,30.02,10.13,30.02.73,2.17-.44,4.51-2.61,5.24-2.17.73-4.51-.44-5.24-2.61-5.4-16.1-12.88-38.23-17.12-50.51-4.07,8.73-10.4,22.36-15.92,34.58,8.54-1.6,15.33-2.76,15.45-2.78,2.26-.39,4.39,1.13,4.77,3.39.38,2.25-1.13,4.39-3.38,4.77-.14.02-10.07,1.71-20.96,3.83-1.82,4.1-3.41,7.78-4.63,10.71-4.66,11.23-9.69,17.61-15.39,19.51-1.17.39-2.37.58-3.55.58m13.65-28.8c-1.25.27-2.48.53-3.68.8-11.56,2.57-13.15,12.51-13.21,12.93-.02.11-.04.26-.07.37,0,.01-.88,4.44,1.53,5.87,1.24.74,2.1.6,2.7.4,1.47-.49,5.42-2.91,10.36-14.83.68-1.64,1.47-3.5,2.36-5.54"/>
  <path class="cls-2" d="m87.8,85.29c0-2.92-2.37-5.28-5.28-5.28s-5.28,2.37-5.28,5.28,2.36,5.28,5.28,5.28,5.28-2.37,5.28-5.28"/>
  <path class="cls-3" d="m148.63,81.57c2.23,0,3.34,1.14,3.34,3.41v1.61c0,2.19-1.11,3.29-3.34,3.29h-39.01c-2.35,0-3.52-1.13-3.52-3.4V7.57c0-2.31,1.13-3.46,3.4-3.46h2.57c2.19,0,3.28,1.16,3.28,3.46v74.01h33.27Z"/>
  <path class="cls-3" d="m210.81,81.57c2.23,0,3.34,1.14,3.34,3.41v1.61c0,2.19-1.11,3.29-3.34,3.29h-39.01c-2.35,0-3.52-1.13-3.52-3.4V7.57c0-2.31,1.13-3.46,3.4-3.46h2.57c2.19,0,3.28,1.16,3.28,3.46v74.01h33.27Z"/>
  <path class="cls-3" d="m277.17,81.57c2.19,0,3.28,1.14,3.28,3.41v1.61c0,2.19-1.1,3.29-3.28,3.29h-43.19c-2.35,0-3.52-1.13-3.52-3.4V7.69c0-2.39,1.17-3.58,3.52-3.58h41.93c2.23,0,3.35,1.16,3.35,3.46v1.55c0,2.23-1.11,3.35-3.35,3.35h-36.2v28.85h33.03c2.27,0,3.4,1.1,3.4,3.29v1.61c0,2.27-1.14,3.4-3.4,3.4h-33.03v31.96h37.45Z"/>
  <path class="cls-3" d="m312.6,86.47c0,2.27-1.1,3.41-3.29,3.41h-2.57c-2.27,0-3.4-1.14-3.4-3.41V7.69c0-2.31,1.13-3.46,3.4-3.46h2.57c2.19,0,3.29,1.16,3.29,3.46v34.58h12.48l20.91-34.94c1.08-2.07,2.71-3.11,4.9-3.11h2.93c1.16,0,1.95.34,2.39,1.02.44.68.42,1.53-.06,2.57l-23,38.17,28.25,40.74c.52.92.57,1.67.15,2.27-.42.6-1.21.9-2.36.9h-2.93c-2.35,0-4.1-1.02-5.26-3.05l-24.97-36.2h-13.44v35.84Z"/>
  <path class="cls-3" d="m389.59,86.47c0,2.27-1.1,3.41-3.29,3.41h-2.57c-2.27,0-3.4-1.14-3.4-3.41V7.57c0-2.31,1.13-3.46,3.4-3.46h2.57c2.19,0,3.29,1.16,3.29,3.46v78.91Z"/>
  <path class="cls-3" d="m423.16,86.47c0,2.27-1.1,3.4-3.29,3.4h-2.57c-2.27,0-3.4-1.14-3.4-3.4V7.69c0-2.39,1.17-3.58,3.52-3.58h30.46c6.41,0,11.68,1.72,15.8,5.17,4.13,3.45,6.18,7.64,6.18,12.58v17.74c0,3.74-1.54,7.23-4.63,10.45-3.09,3.23-6.88,5.18-11.38,5.85l14.69,29.93c.44,1.19.43,2.17-.03,2.93-.46.76-1.27,1.14-2.42,1.14h-2.09c-1.4,0-2.48-.33-3.25-.98-.78-.66-1.44-1.58-2-2.78l-14.45-29.15h-21.15v29.51Zm37.45-62.9c0-3.34-1.3-6.01-3.91-8-2.61-1.99-5.89-2.99-9.83-2.99h-23.71v36.08h24.97c3.43,0,6.36-1.05,8.81-3.17,2.45-2.11,3.67-4.64,3.67-7.59v-14.34Z"/>
  <path class="cls-3" d="m495.02,7.69c0-2.31,1.11-3.46,3.34-3.46h2.57c2.27,0,3.4,1.16,3.4,3.46v84.4c0,6.97-2.27,12.57-6.81,16.78-4.54,4.22-10.29,6.33-17.26,6.33h-2.21c-2.15,0-3.23-1.05-3.23-3.17v-1.97c0-2.03.96-3.05,2.87-3.05h2.03c4.3,0,7.92-1.41,10.87-4.24,2.95-2.83,4.42-6.39,4.42-10.69V7.69Z"/>
  <path class="cls-3" d="m585.63,71.9c0,5.14-1.97,9.54-5.91,13.2-3.94,3.66-8.94,5.49-14.99,5.49h-16.31c-6.17,0-11.28-1.83-15.32-5.49-4.04-3.67-6.06-8.06-6.06-13.2V22.2c0-5.14,2.02-9.54,6.06-13.2,4.04-3.67,9.15-5.49,15.32-5.49h16.31c6.05,0,11.05,1.83,14.99,5.49,3.94,3.67,5.91,8.06,5.91,13.2v49.7Zm-49.28-1.73c0,3.55,1.22,6.45,3.64,8.72,2.43,2.27,5.41,3.4,8.96,3.4h14.87c3.54,0,6.53-1.13,8.96-3.4,2.43-2.27,3.64-5.18,3.64-8.72V23.93c0-3.54-1.21-6.45-3.64-8.72-2.43-2.27-5.41-3.4-8.96-3.4h-14.87c-3.55,0-6.53,1.13-8.96,3.4-2.43,2.27-3.64,5.18-3.64,8.72v46.23Z"/>
  <path class="cls-3" d="m617.71,86.47c0,2.27-1.1,3.41-3.29,3.41h-2.57c-2.27,0-3.41-1.14-3.41-3.41V7.57c0-2.31,1.14-3.46,3.41-3.46h2.57c2.19,0,3.29,1.16,3.29,3.46v78.91Z"/>
  <path class="cls-3" d="m666.33,86.47c0,2.27-1.14,3.41-3.41,3.41h-2.45c-2.23,0-3.35-1.14-3.35-3.41V12.46h-20.01c-2.23,0-3.34-1.11-3.34-3.34v-1.55c0-2.31,1.11-3.46,3.34-3.46h48.03c2.15,0,3.22,1.16,3.22,3.46v1.55c0,2.23-1.08,3.34-3.22,3.34h-18.82v74.01Z"/>
  <path class="cls-3" d="m761.72,71.9c0,5.14-1.97,9.54-5.91,13.2-3.94,3.67-8.94,5.49-14.99,5.49h-15.77c-6.17,0-11.29-1.83-15.35-5.49-4.06-3.66-6.09-8.06-6.09-13.2V7.57c0-2.31,1.16-3.46,3.47-3.46h2.45c2.27,0,3.41,1.16,3.41,3.46v62.6c0,3.5,1.21,6.4,3.61,8.69,2.41,2.29,5.37,3.43,8.87,3.43h14.39c3.55,0,6.53-1.13,8.96-3.4,2.43-2.27,3.64-5.18,3.64-8.72V7.57c0-2.31,1.11-3.46,3.35-3.46h2.57c2.27,0,3.41,1.16,3.41,3.46v64.33Z"/>
  <path class="cls-3" d="m781.62,67.24c0-2.11,1.13-3.17,3.4-3.17h2.87c2.03,0,3.05,1.02,3.05,3.05v3.7c0,3.34,1.42,6.09,4.27,8.24,2.85,2.15,6.36,3.23,10.54,3.23h9.86c4.5,0,8.17-.99,11.02-2.99,2.85-1.99,4.27-4.78,4.27-8.36v-5.32c0-1.63-.86-3.2-2.57-4.69-1.71-1.5-3.93-2.87-6.66-4.12-2.73-1.25-5.74-2.54-9.05-3.85-3.31-1.31-6.61-2.77-9.91-4.36-3.31-1.59-6.32-3.31-9.05-5.17-2.73-1.85-4.95-4.09-6.66-6.72-1.71-2.63-2.57-5.5-2.57-8.6v-7.82c0-4.54,1.9-8.47,5.71-11.79,3.8-3.33,8.59-4.99,14.36-4.99h11.11c6.41,0,11.69,1.76,15.83,5.29,4.14,3.53,6.21,7.76,6.21,12.7v4.66c0,2.35-1.1,3.52-3.29,3.52h-2.45c-2.27,0-3.41-1.01-3.41-3.05v-3.4c0-3.35-1.31-6.08-3.94-8.21-2.63-2.13-5.89-3.19-9.8-3.19h-8.9c-3.46,0-6.35.96-8.66,2.87-2.31,1.91-3.46,4.34-3.46,7.29v5.55c0,2.07.86,4.02,2.57,5.85,1.71,1.83,3.92,3.46,6.63,4.9,2.71,1.43,5.71,2.84,9.02,4.21,3.31,1.38,6.61,2.8,9.92,4.27,3.31,1.47,6.31,3.01,9.02,4.63,2.71,1.61,4.92,3.53,6.63,5.76,1.71,2.23,2.57,4.62,2.57,7.17v8.3c0,5.34-2.18,9.67-6.54,12.99-4.36,3.33-10,4.99-16.93,4.99h-11.41c-6.89,0-12.54-1.83-16.96-5.5-4.42-3.66-6.63-8.06-6.63-13.2v-4.66Z"/>
  <path class="cls-4" d="m855.05,85.47c0-3.06,2.8-5.72,5.99-5.72s5.86,2.66,5.86,5.72-2.66,5.86-5.86,5.86-5.99-2.66-5.99-5.86"/>
  <path class="cls-4" d="m880.61,90.13V31.95h-10.65v-6.12h10.65v-5.86c0-12.65,6.79-19.97,17.44-19.97,3.19,0,6.12.53,8.65,2l-2.13,5.72c-1.6-.93-3.33-1.46-5.86-1.46-7.32,0-11.05,5.06-11.05,13.71v5.86h13.05v6.12h-13.05v58.18h-7.05Zm31.16-79.75c0-2.93,2.53-5.19,5.32-5.19,2.93,0,5.33,2.26,5.33,5.19s-2.4,5.32-5.33,5.32-5.32-2.4-5.32-5.32m1.86,15.44h6.92v64.3h-6.92V25.83Z"/>
</svg>
